<svg width="25" height="21" viewBox="0 0 25 21" fill="none" xmlns="http://www.w3.org/2000/svg">
<path d="M4.84 1H19.24M1 3.4H23.4L20.2 19.4H4.2L1 3.4ZM16.2 11.16C16.2 13.3691 14.4091 15.16 12.2 15.16C9.99086 15.16 8.2 13.3691 8.2 11.16C8.2 8.95086 9.99086 7.16 12.2 7.16C14.4091 7.16 16.2 8.95086 16.2 11.16Z" stroke="#191414" stroke-width="2" stroke-linecap="round" stroke-linejoin="round"/>
<path d="M4.84 1H19.24M1 3.4H23.4L20.2 19.4H4.2L1 3.4ZM16.2 11.16C16.2 13.3691 14.4091 15.16 12.2 15.16C9.99086 15.16 8.2 13.3691 8.2 11.16C8.2 8.95086 9.99086 7.16 12.2 7.16C14.4091 7.16 16.2 8.95086 16.2 11.16Z" stroke="#191414" stroke-width="2" stroke-linecap="round" stroke-linejoin="round"/>
</svg>
