<svg width="26" height="23" viewBox="0 0 26 23" fill="none" xmlns="http://www.w3.org/2000/svg">
<path d="M2.29377 13.0152L3.3753 11.9758L3.36497 11.9651L3.35443 11.9545C1.03287 9.63297 1.03287 5.86897 3.35443 3.5474C5.59247 1.30937 9.1722 1.22879 11.5057 3.30595C11.5048 3.30522 11.5158 3.31518 11.5446 3.34347C11.5639 3.36246 11.5816 3.38011 11.6025 3.40099C11.6132 3.41164 11.6247 3.42312 11.6377 3.43605C11.6676 3.46572 11.7157 3.51353 11.762 3.5562C11.7822 3.57482 11.8281 3.61676 11.8854 3.66137C11.9114 3.6816 11.9723 3.72812 12.0548 3.77676C12.0961 3.80109 12.1702 3.8423 12.268 3.88098C12.3475 3.91242 12.5506 3.98674 12.8222 3.98674C13.0939 3.98674 13.297 3.91241 13.3765 3.88096C13.4743 3.84226 13.5484 3.80105 13.5897 3.77671C13.6723 3.72806 13.7332 3.68152 13.7592 3.66129C13.8165 3.61666 13.8624 3.57471 13.8826 3.5561C13.9288 3.51342 13.977 3.46561 14.0068 3.43594C14.0198 3.42307 14.0312 3.41163 14.0419 3.40102C14.0629 3.38008 14.0806 3.3624 14.0999 3.34339C14.1295 3.31438 14.1402 3.30467 14.1387 3.30602C16.4721 1.22877 20.0519 1.30933 22.29 3.54741C24.5883 5.84574 24.4928 9.71664 22.2817 11.9629L22.2732 11.9716L22.2648 11.9804L23.3507 13.0152L22.2648 11.9804L22.2645 11.9807L22.2634 11.9819L22.2586 11.9869L22.2391 12.0073L22.1621 12.0879C22.0943 12.1587 21.9945 12.2628 21.8669 12.3955C21.6116 12.661 21.2452 13.0407 20.8017 13.4965C19.9141 14.4088 18.7205 15.6229 17.4923 16.8353C16.2603 18.0515 15.0094 19.2501 14.0028 20.1385C13.5453 20.5422 13.159 20.8635 12.8594 21.0888C12.557 20.863 12.1664 20.5404 11.7038 20.135C10.6898 19.2463 9.42896 18.0475 8.18714 16.8312C6.94912 15.6187 5.7457 14.4044 4.85073 13.4921C4.40355 13.0363 4.03407 12.6566 3.77663 12.3911C3.64793 12.2583 3.54726 12.1542 3.47893 12.0834L3.40124 12.0028L3.3816 11.9824L3.37676 11.9773L3.37561 11.9761L3.37535 11.9759L2.29377 13.0152ZM13.295 21.3764C13.2953 21.3772 13.2851 21.3731 13.263 21.3614C13.2835 21.3697 13.2946 21.3755 13.295 21.3764ZM12.4254 21.3773C12.4258 21.3765 12.4368 21.3706 12.4572 21.3623C12.4352 21.374 12.425 21.3782 12.4254 21.3773Z" stroke="#191414" stroke-width="3"/>
<path d="M2.29377 13.0152L3.3753 11.9758L3.36497 11.9651L3.35443 11.9545C1.03287 9.63297 1.03287 5.86897 3.35443 3.5474C5.59247 1.30937 9.1722 1.22879 11.5057 3.30595C11.5048 3.30522 11.5158 3.31518 11.5446 3.34347C11.5639 3.36246 11.5816 3.38011 11.6025 3.40099C11.6132 3.41164 11.6247 3.42312 11.6377 3.43605C11.6676 3.46572 11.7157 3.51353 11.762 3.5562C11.7822 3.57482 11.8281 3.61676 11.8854 3.66137C11.9114 3.6816 11.9723 3.72812 12.0548 3.77676C12.0961 3.80109 12.1702 3.8423 12.268 3.88098C12.3475 3.91242 12.5506 3.98674 12.8222 3.98674C13.0939 3.98674 13.297 3.91241 13.3765 3.88096C13.4743 3.84226 13.5484 3.80105 13.5897 3.77671C13.6723 3.72806 13.7332 3.68152 13.7592 3.66129C13.8165 3.61666 13.8624 3.57471 13.8826 3.5561C13.9288 3.51342 13.977 3.46561 14.0068 3.43594C14.0198 3.42307 14.0312 3.41163 14.0419 3.40102C14.0629 3.38008 14.0806 3.3624 14.0999 3.34339C14.1295 3.31438 14.1402 3.30467 14.1387 3.30602C16.4721 1.22877 20.0519 1.30933 22.29 3.54741C24.5883 5.84574 24.4928 9.71664 22.2817 11.9629L22.2732 11.9716L22.2648 11.9804L23.3507 13.0152L22.2648 11.9804L22.2645 11.9807L22.2634 11.9819L22.2586 11.9869L22.2391 12.0073L22.1621 12.0879C22.0943 12.1587 21.9945 12.2628 21.8669 12.3955C21.6116 12.661 21.2452 13.0407 20.8017 13.4965C19.9141 14.4088 18.7205 15.6229 17.4923 16.8353C16.2603 18.0515 15.0094 19.2501 14.0028 20.1385C13.5453 20.5422 13.159 20.8635 12.8594 21.0888C12.557 20.863 12.1664 20.5404 11.7038 20.135C10.6898 19.2463 9.42896 18.0475 8.18714 16.8312C6.94912 15.6187 5.7457 14.4044 4.85073 13.4921C4.40355 13.0363 4.03407 12.6566 3.77663 12.3911C3.64793 12.2583 3.54726 12.1542 3.47893 12.0834L3.40124 12.0028L3.3816 11.9824L3.37676 11.9773L3.37561 11.9761L3.37535 11.9759L2.29377 13.0152ZM13.295 21.3764C13.2953 21.3772 13.2851 21.3731 13.263 21.3614C13.2835 21.3697 13.2946 21.3755 13.295 21.3764ZM12.4254 21.3773C12.4258 21.3765 12.4368 21.3706 12.4572 21.3623C12.4352 21.374 12.425 21.3782 12.4254 21.3773Z" stroke="#191414" stroke-width="3"/>
</svg>
